<?xml version="1.0" standalone="no"?>
<!DOCTYPE svg PUBLIC "-//W3C//DTD SVG 20010904//EN"
 "http://www.w3.org/TR/2001/REC-SVG-20010904/DTD/svg10.dtd">
<svg version="1.0" xmlns="http://www.w3.org/2000/svg"
 width="1241.000000pt" height="1279.000000pt" viewBox="0 0 1241.000000 1279.000000"
 preserveAspectRatio="xMidYMid meet">

<g transform="translate(0.000000,1279.000000) scale(0.100000,-0.100000)"
fill="#000000" stroke="none">
<path d="M0 6395 l0 -6395 6205 0 6205 0 0 6395 0 6395 -6205 0 -6205 0 0
-6395z m6297 5495 c114 -6 264 -17 333 -26 114 -14 376 -56 425 -68 11 -3 52
-13 90 -21 39 -9 90 -22 115 -30 25 -7 83 -23 130 -35 107 -29 338 -108 500
-172 185 -73 555 -257 640 -318 16 -11 31 -20 35 -20 10 0 224 -145 327 -222
512 -385 834 -725 1180 -1248 229 -348 348 -585 525 -1045 50 -132 127 -411
182 -660 12 -54 34 -190 61 -375 41 -288 41 -871 0 -1155 -5 -33 -14 -100 -20
-150 -28 -225 -94 -526 -166 -755 -14 -47 -29 -97 -31 -113 -3 -15 -9 -30 -14
-33 -5 -3 -9 -14 -9 -24 0 -11 -7 -34 -15 -52 -8 -18 -32 -83 -54 -145 -22
-61 -58 -149 -79 -195 -22 -46 -52 -112 -68 -148 -50 -114 -151 -303 -241
-450 -36 -58 -70 -114 -76 -125 -55 -91 -292 -413 -377 -510 -439 -503 -797
-804 -1304 -1095 -130 -74 -466 -240 -487 -240 -8 0 -19 -4 -24 -9 -25 -22
-337 -130 -535 -184 -111 -31 -161 -43 -315 -77 -89 -19 -306 -54 -417 -65
-32 -4 -60 -10 -62 -14 -10 -16 -10 -571 0 -581 6 -6 196 -11 549 -12 l540 -3
3 -334 c2 -238 -1 -338 -9 -347 -10 -12 -254 -14 -1513 -14 -825 0 -1507 4
-1514 8 -9 7 -12 83 -10 348 l3 339 530 5 c292 3 536 9 543 13 9 6 12 77 12
298 l0 289 -22 9 c-13 5 -97 19 -188 31 -207 28 -234 33 -460 87 -262 63 -609
181 -815 278 -269 126 -423 210 -649 354 -148 95 -193 127 -366 265 -345 276
-703 656 -930 988 -180 262 -290 447 -408 683 -119 240 -216 484 -292 735 -17
58 -37 125 -45 150 -25 82 -73 294 -90 390 -29 175 -34 204 -49 335 -50 428
-50 800 0 1230 16 135 47 331 63 400 6 22 17 74 27 115 35 160 84 324 174 585
41 120 138 343 220 505 349 697 873 1303 1530 1771 354 252 766 461 1190 604
85 29 173 57 195 63 150 42 195 53 315 80 147 33 206 44 350 66 154 24 196 28
385 40 99 6 201 12 227 14 26 2 141 -2 255 -8z"/>
<path d="M5920 11035 c-372 -55 -702 -303 -875 -660 -149 -307 -156 -683 -20
-1007 217 -513 749 -793 1302 -683 226 44 390 129 559 289 300 283 436 689
365 1092 -22 128 -49 209 -104 319 -108 216 -260 380 -468 501 -231 136 -496
188 -759 149z"/>
<path d="M8610 9193 c-170 -25 -235 -39 -295 -60 -170 -61 -319 -155 -445
-282 -115 -116 -134 -139 -191 -238 -99 -171 -142 -301 -160 -483 -58 -583
283 -1118 826 -1295 363 -119 759 -36 1075 225 76 63 69 57 141 140 141 162
236 364 274 578 20 114 20 335 -1 443 -58 313 -242 596 -502 771 -95 64 -234
130 -332 158 -126 35 -309 56 -390 43z"/>
<path d="M3400 9179 c-248 -18 -515 -144 -707 -336 -149 -148 -268 -354 -318
-548 -70 -270 -57 -494 42 -755 180 -473 638 -776 1130 -746 305 18 568 131
768 331 142 141 221 260 285 425 61 159 82 275 81 450 0 144 -11 216 -53 355
-135 440 -557 791 -988 821 -41 2 -88 6 -105 7 -16 2 -77 0 -135 -4z"/>
<path d="M5917 7799 c-136 -39 -245 -113 -352 -240 -93 -110 -145 -265 -145
-434 0 -118 24 -223 73 -324 34 -70 59 -103 132 -177 95 -95 158 -135 275
-174 90 -30 279 -30 378 0 139 42 287 150 371 273 46 67 95 181 111 254 20 96
9 281 -21 368 -62 176 -202 340 -347 406 -124 56 -181 69 -296 68 -78 0 -131
-6 -179 -20z"/>
<path d="M4229 6170 c-130 -16 -242 -50 -365 -110 -352 -173 -588 -476 -669
-856 -20 -95 -20 -374 0 -474 52 -252 167 -471 339 -642 257 -256 586 -371
941 -331 150 16 222 34 336 82 331 138 571 402 687 756 45 137 55 213 54 390
-1 263 -61 460 -203 671 -69 103 -212 245 -320 317 -84 56 -246 134 -324 156
-135 39 -350 57 -476 41z"/>
<path d="M7715 6170 c-115 -12 -173 -25 -264 -60 -349 -135 -604 -395 -734
-750 -55 -149 -71 -263 -64 -449 8 -223 61 -405 167 -580 183 -301 439 -485
785 -562 81 -19 370 -19 450 0 168 38 325 106 449 195 86 62 233 209 288 287
163 236 227 439 228 715 0 182 -12 254 -68 409 -65 182 -196 376 -331 493 -36
31 -68 60 -71 64 -3 4 -50 34 -105 68 -115 70 -272 134 -377 154 -99 19 -256
26 -353 16z"/>
</g>
</svg>
