<svg xmlns="http://www.w3.org/2000/svg" width="281.75" height="32.75" data-asc=".898" viewBox="0 12.9 281.75 32.75"><path fill="#fff" d="m22.7 44.9 5.5-31.25h19.5l-2.65 8h-8.8l-.7 4.2h8.1L42.3 33.3h-8.1l-2 11.6zm3.55-29L5.1 13.65h21.55zm-.8 4.8-21.2-2.25H25.8zm-.85 4.8L3.4 23.25H25zm-.85 4.8-21.2-2.25h21.6zm-.85 4.8L1.7 32.85h21.6zm-.85 4.8L.85 37.65h21.6zm-.85 4.85L0 42.5h21.6zm31.2.15 13.15-31.25h14.7l2.2 31.25H72.4l-.2-4.95h-7.85L62.4 44.9zM63 15.8l-20.4-2.15h21.3zm-2.05 4.8-20.4-2.15h21.3zm-2 4.85-20.45-2.2h21.35zm8.5 6.55h4v-8.75h-.5zM56.9 30.25l-20.45-2.2h21.4zm-2 4.8-20.5-2.2h21.4zm-2.05 4.8-20.5-2.2H53.8zM50.8 44.7l-20.5-2.2h21.45zm56.45.95q-2.95 0-5.77-.33-2.83-.32-5.48-.97l2.8-8.25q1.9.5 4.1.82 2.2.33 4.15.33 1.6 0 2.8-.08 1.2-.07 2.3-.22l.4-2.5-4.15-.4q-4.9-.5-6.8-2.23-1.9-1.72-1.9-4.72 0-1.35.3-3 .8-4.25 2.33-6.7 1.52-2.45 4.37-3.48 2.85-1.02 7.55-1.02 2.75 0 5.4.3t5.1.95l-2.6 8q-1.95-.35-3.7-.55t-3.9-.2q-1.15 0-1.95.05t-1.95.2l-.4 2.45 3.35.35q3.6.35 5.65 1.37 2.05 1.03 2.9 2.55.85 1.53.85 3.53 0 .6-.07 1.23-.08.62-.18 1.32-.7 4.05-2.25 6.35t-3.65 3.33q-2.1 1.02-4.57 1.27-2.48.25-5.03.25M101.5 15.7l-19.3-2.05h21.5q-.65.4-1.17.92-.53.53-1.03 1.13m-2.3 4.95-20.75-2.2h21.5zm-.95 4.85-21.2-2.25H98.6q-.05.15-.07.3-.03.15-.03.3-.05.35-.12.75-.08.4-.13.9m.4 4.8L77.5 28.05h20.75q.05.65.13 1.17.07.53.27 1.08m6.6 4.8L78.8 32.85h21.55q1.65 1.6 4.9 2.25m-9.35 4.75-17.95-2.2h18.7zm-1.6 4.85-17.2-2.2h17.95zm47.3.2 4.05-23.25h-6.85l1.45-8h23.25l-1.45 8h-6.9L151.1 44.9zm-3.35-29-21.15-2.25h21.55zm-.8 4.8-21.2-2.25h21.55zm6 4.8-21.2-2.25h21.6zm-.85 4.8-21.2-2.25H143zm-.85 4.8-21.2-2.25h21.6zm-.85 4.8-21.2-2.25h21.6zm-.85 4.85-21.2-2.25h21.6zm43.65.9q-6.5 0-9.12-2.55-2.63-2.55-2.63-7.55 0-1.4.18-2.95.17-1.55.47-3.3.95-5.45 2.8-9.08 1.85-3.62 5.2-5.47t8.85-1.85q6.5 0 9.13 2.52 2.62 2.53 2.62 7.58 0 2.05-.32 4.7-.33 2.65-1.1 5.4-.78 2.75-2.08 5.2t-3.25 4.2q-2 1.75-4.65 2.45t-6.1.7m-6.6-30.35-15.3-1.65h17.55q-.6.35-1.15.75t-1.1.9m-3.5 5.15-18.7-2h19.7q-.25.5-.5.97-.25.48-.5 1.03m7.8 16.65h3.95q1.65 0 2.73-.4 1.07-.4 1.42-2.25l2.3-13h-4q-1.65 0-2.7.4t-1.4 2.25zm-9.45-11.8-19.4-2.05h20zm-.95 4.85-19.65-2.1h20l-.15 1q-.05.3-.1.58-.05.27-.1.52m-.5 4.8-19.7-2.1h19.85q-.15 1.1-.15 2.1m.4 4.8-19.45-2.1h19.1q.1.55.18 1.07.07.53.17 1.03m2.65 4.6-17.3-1.85h15.8q.65 1.15 1.5 1.85m39 .55 5.5-31.25h15q3.25 0 5.13 1 1.87 1 2.65 2.72.77 1.73.77 3.93 0 1.35-.27 3.2-.28 1.85-.98 3.77-.7 1.93-1.97 3.58-1.28 1.65-3.23 2.65l3.3 10.4H228l-2.3-9.3h-2.05l-1.6 9.3zm3.55-29-21.15-2.25h21.55zm-.85 4.8-21.15-2.25h21.55zm9.75 7.2h2.2q1.45 0 2.45-.33 1-.32 1.25-1.77.25-1.25.33-1.9.07-.65.07-.7 0-1.1-.92-1.33-.93-.22-2.38-.22h-1.9zm-10.6-2.4-21.15-2.25h21.55zm-.85 4.8-21.15-2.25h21.55zm-.8 4.8-21.2-2.25h21.6zm-.85 4.8-21.2-2.25h21.6zm-.85 4.85-21.2-2.25h21.6zm40.65.15 13.15-31.25h14.7l2.2 31.25H271.7l-.2-4.95h-7.85l-1.95 4.95zm10.6-29.1-20.4-2.15h21.3zm-2.05 4.8-20.4-2.15h21.3zm-2 4.85-20.45-2.2h21.35zm8.5 6.55h4v-8.75h-.5zm-10.55-1.75-20.45-2.2h21.4zm-2 4.8-20.5-2.2h21.4zm-2.05 4.8-20.5-2.2h21.45zm-2.05 4.85-20.5-2.2h21.45z"/></svg>